<svg width="274" height="22" viewBox="0 0 274 22" fill="none" xmlns="http://www.w3.org/2000/svg">
<line x1="208.282" y1="10.5724" x2="273.09" y2="10.5724" stroke="black" stroke-opacity="0.5"/>
<path d="M84.7068 15.6984C83.9882 15.6984 83.3348 15.5351 82.7468 15.2084C82.1682 14.8818 81.7108 14.4198 81.3748 13.8224C81.0482 13.2158 80.8848 12.5158 80.8848 11.7224C80.8848 10.9384 81.0528 10.2478 81.3888 9.65045C81.7342 9.04378 82.2008 8.58178 82.7888 8.26445C83.3768 7.93778 84.0348 7.77445 84.7628 7.77445C85.4908 7.77445 86.1488 7.93778 86.7368 8.26445C87.3248 8.58178 87.7868 9.03911 88.1228 9.63645C88.4682 10.2338 88.6408 10.9291 88.6408 11.7224C88.6408 12.5158 88.4635 13.2158 88.1088 13.8224C87.7635 14.4198 87.2922 14.8818 86.6948 15.2084C86.0975 15.5351 85.4348 15.6984 84.7068 15.6984ZM84.7068 14.5784C85.1642 14.5784 85.5935 14.4711 85.9948 14.2564C86.3962 14.0418 86.7182 13.7198 86.9608 13.2904C87.2128 12.8611 87.3388 12.3384 87.3388 11.7224C87.3388 11.1064 87.2175 10.5838 86.9748 10.1544C86.7322 9.72512 86.4148 9.40778 86.0228 9.20245C85.6308 8.98778 85.2062 8.88045 84.7488 8.88045C84.2822 8.88045 83.8528 8.98778 83.4608 9.20245C83.0782 9.40778 82.7702 9.72512 82.5368 10.1544C82.3035 10.5838 82.1868 11.1064 82.1868 11.7224C82.1868 12.3478 82.2988 12.8751 82.5228 13.3044C82.7562 13.7338 83.0642 14.0558 83.4468 14.2704C83.8295 14.4758 84.2495 14.5784 84.7068 14.5784ZM91.5899 9.14645C91.8139 8.70778 92.1312 8.36711 92.5419 8.12445C92.9619 7.88178 93.4706 7.76045 94.0679 7.76045V9.07645H93.7319C92.3039 9.07645 91.5899 9.85112 91.5899 11.4004V15.5724H90.3159V7.90045H91.5899V9.14645ZM98.795 11.7224C98.795 10.9291 98.9537 10.2384 99.271 9.65045C99.5883 9.05312 100.027 8.59112 100.587 8.26445C101.156 7.93778 101.805 7.77445 102.533 7.77445C103.476 7.77445 104.25 8.00311 104.857 8.46045C105.473 8.91778 105.879 9.55245 106.075 10.3644H104.703C104.572 9.89778 104.316 9.52912 103.933 9.25845C103.56 8.98778 103.093 8.85245 102.533 8.85245C101.805 8.85245 101.217 9.10445 100.769 9.60845C100.321 10.1031 100.097 10.8078 100.097 11.7224C100.097 12.6464 100.321 13.3604 100.769 13.8644C101.217 14.3684 101.805 14.6204 102.533 14.6204C103.093 14.6204 103.56 14.4898 103.933 14.2284C104.306 13.9671 104.563 13.5938 104.703 13.1084H106.075C105.87 13.8924 105.459 14.5224 104.843 14.9984C104.227 15.4651 103.457 15.6984 102.533 15.6984C101.805 15.6984 101.156 15.5351 100.587 15.2084C100.027 14.8818 99.5883 14.4198 99.271 13.8224C98.9537 13.2251 98.795 12.5251 98.795 11.7224ZM111.121 15.6984C110.402 15.6984 109.749 15.5351 109.161 15.2084C108.582 14.8818 108.125 14.4198 107.789 13.8224C107.462 13.2158 107.299 12.5158 107.299 11.7224C107.299 10.9384 107.467 10.2478 107.803 9.65045C108.148 9.04378 108.615 8.58178 109.203 8.26445C109.791 7.93778 110.449 7.77445 111.177 7.77445C111.905 7.77445 112.563 7.93778 113.151 8.26445C113.739 8.58178 114.201 9.03911 114.537 9.63645C114.882 10.2338 115.055 10.9291 115.055 11.7224C115.055 12.5158 114.878 13.2158 114.523 13.8224C114.178 14.4198 113.706 14.8818 113.109 15.2084C112.512 15.5351 111.849 15.6984 111.121 15.6984ZM111.121 14.5784C111.578 14.5784 112.008 14.4711 112.409 14.2564C112.81 14.0418 113.132 13.7198 113.375 13.2904C113.627 12.8611 113.753 12.3384 113.753 11.7224C113.753 11.1064 113.632 10.5838 113.389 10.1544C113.146 9.72512 112.829 9.40778 112.437 9.20245C112.045 8.98778 111.62 8.88045 111.163 8.88045C110.696 8.88045 110.267 8.98778 109.875 9.20245C109.492 9.40778 109.184 9.72512 108.951 10.1544C108.718 10.5838 108.601 11.1064 108.601 11.7224C108.601 12.3478 108.713 12.8751 108.937 13.3044C109.17 13.7338 109.478 14.0558 109.861 14.2704C110.244 14.4758 110.664 14.5784 111.121 14.5784ZM120.468 7.76045C121.401 7.76045 122.157 8.04512 122.736 8.61445C123.315 9.17445 123.604 9.98645 123.604 11.0504V15.5724H122.344V11.2324C122.344 10.4671 122.153 9.88378 121.77 9.48245C121.387 9.07178 120.865 8.86645 120.202 8.86645C119.53 8.86645 118.993 9.07645 118.592 9.49645C118.2 9.91645 118.004 10.5278 118.004 11.3304V15.5724H116.73V7.90045H118.004V8.99245C118.256 8.60045 118.597 8.29712 119.026 8.08245C119.465 7.86778 119.945 7.76045 120.468 7.76045ZM127.239 8.95045V13.4724C127.239 13.8458 127.318 14.1118 127.477 14.2704C127.636 14.4198 127.911 14.4944 128.303 14.4944H129.241V15.5724H128.093C127.384 15.5724 126.852 15.4091 126.497 15.0824C126.142 14.7558 125.965 14.2191 125.965 13.4724V8.95045H124.971V7.90045H125.965V5.96845H127.239V7.90045H129.241V8.95045H127.239ZM131.443 6.65445C131.2 6.65445 130.995 6.57045 130.827 6.40245C130.659 6.23445 130.575 6.02911 130.575 5.78645C130.575 5.54378 130.659 5.33845 130.827 5.17045C130.995 5.00245 131.2 4.91845 131.443 4.91845C131.676 4.91845 131.872 5.00245 132.031 5.17045C132.199 5.33845 132.283 5.54378 132.283 5.78645C132.283 6.02911 132.199 6.23445 132.031 6.40245C131.872 6.57045 131.676 6.65445 131.443 6.65445ZM132.059 7.90045V15.5724H130.785V7.90045H132.059ZM137.968 7.76045C138.901 7.76045 139.657 8.04512 140.236 8.61445C140.815 9.17445 141.104 9.98645 141.104 11.0504V15.5724H139.844V11.2324C139.844 10.4671 139.653 9.88378 139.27 9.48245C138.887 9.07178 138.365 8.86645 137.702 8.86645C137.03 8.86645 136.493 9.07645 136.092 9.49645C135.7 9.91645 135.504 10.5278 135.504 11.3304V15.5724H134.23V7.90045H135.504V8.99245C135.756 8.60045 136.097 8.29712 136.526 8.08245C136.965 7.86778 137.445 7.76045 137.968 7.76045ZM149.989 7.90045V15.5724H148.715V14.4384C148.472 14.8304 148.132 15.1384 147.693 15.3624C147.264 15.5771 146.788 15.6844 146.265 15.6844C145.668 15.6844 145.131 15.5631 144.655 15.3204C144.179 15.0684 143.801 14.6951 143.521 14.2004C143.25 13.7058 143.115 13.1038 143.115 12.3944V7.90045H144.375V12.2264C144.375 12.9824 144.566 13.5658 144.949 13.9764C145.332 14.3778 145.854 14.5784 146.517 14.5784C147.198 14.5784 147.735 14.3684 148.127 13.9484C148.519 13.5284 148.715 12.9171 148.715 12.1144V7.90045H149.989ZM159.14 11.4424C159.14 11.6851 159.126 11.9418 159.098 12.2124H152.966C153.013 12.9684 153.269 13.5611 153.736 13.9904C154.212 14.4104 154.786 14.6204 155.458 14.6204C156.009 14.6204 156.466 14.4944 156.83 14.2424C157.203 13.9811 157.465 13.6358 157.614 13.2064H158.986C158.781 13.9438 158.37 14.5458 157.754 15.0124C157.138 15.4698 156.373 15.6984 155.458 15.6984C154.73 15.6984 154.077 15.5351 153.498 15.2084C152.929 14.8818 152.481 14.4198 152.154 13.8224C151.827 13.2158 151.664 12.5158 151.664 11.7224C151.664 10.9291 151.823 10.2338 152.14 9.63645C152.457 9.03911 152.901 8.58178 153.47 8.26445C154.049 7.93778 154.711 7.77445 155.458 7.77445C156.186 7.77445 156.83 7.93312 157.39 8.25045C157.95 8.56778 158.379 9.00645 158.678 9.56645C158.986 10.1171 159.14 10.7424 159.14 11.4424ZM157.824 11.1764C157.824 10.6911 157.717 10.2758 157.502 9.93045C157.287 9.57578 156.993 9.30978 156.62 9.13245C156.256 8.94578 155.85 8.85245 155.402 8.85245C154.758 8.85245 154.207 9.05778 153.75 9.46845C153.302 9.87912 153.045 10.4484 152.98 11.1764H157.824ZM174.774 7.90045L172.38 15.5724H171.064L169.216 9.48245L167.368 15.5724H166.052L163.644 7.90045H164.946L166.71 14.3404L168.614 7.90045H169.916L171.778 14.3544L173.514 7.90045H174.774ZM176.697 6.65445C176.454 6.65445 176.249 6.57045 176.081 6.40245C175.913 6.23445 175.829 6.02911 175.829 5.78645C175.829 5.54378 175.913 5.33845 176.081 5.17045C176.249 5.00245 176.454 4.91845 176.697 4.91845C176.93 4.91845 177.126 5.00245 177.285 5.17045C177.453 5.33845 177.537 5.54378 177.537 5.78645C177.537 6.02911 177.453 6.23445 177.285 6.40245C177.126 6.57045 176.93 6.65445 176.697 6.65445ZM177.313 7.90045V15.5724H176.039V7.90045H177.313ZM181.038 8.95045V13.4724C181.038 13.8458 181.117 14.1118 181.276 14.2704C181.435 14.4198 181.71 14.4944 182.102 14.4944H183.04V15.5724H181.892C181.183 15.5724 180.651 15.4091 180.296 15.0824C179.941 14.7558 179.764 14.2191 179.764 13.4724V8.95045H178.77V7.90045H179.764V5.96845H181.038V7.90045H183.04V8.95045H181.038ZM188.391 7.76045C188.97 7.76045 189.493 7.88645 189.959 8.13845C190.426 8.38112 190.79 8.74978 191.051 9.24445C191.322 9.73912 191.457 10.3411 191.457 11.0504V15.5724H190.197V11.2324C190.197 10.4671 190.006 9.88378 189.623 9.48245C189.241 9.07178 188.718 8.86645 188.055 8.86645C187.383 8.86645 186.847 9.07645 186.445 9.49645C186.053 9.91645 185.857 10.5278 185.857 11.3304V15.5724H184.583V5.21245H185.857V8.99245C186.109 8.60045 186.455 8.29712 186.893 8.08245C187.341 7.86778 187.841 7.76045 188.391 7.76045Z" fill="black"/>
<line x1="0.475708" y1="10.5724" x2="65.2838" y2="10.5724" stroke="black" stroke-opacity="0.5"/>
</svg>
