<svg width="31" height="31" viewBox="0 0 31 31" fill="none" xmlns="http://www.w3.org/2000/svg">
<path d="M15.6832 13.2453V19.0544H23.9208C23.5591 20.9226 22.4736 22.5044 20.8456 23.5681L25.8131 27.3454C28.7074 24.7273 30.3772 20.8818 30.3772 16.3136C30.3772 15.25 30.2798 14.2272 30.0989 13.2455L15.6832 13.2453Z" fill="#4285F4"/>
<path d="M7.10521 18.8276L5.98483 19.6681L2.01904 22.6953C4.53762 27.5907 9.69964 30.9726 15.683 30.9726C19.8156 30.9726 23.2803 29.6362 25.8129 27.3454L20.8453 23.5681C19.4816 24.4681 17.7423 25.0136 15.683 25.0136C11.7033 25.0136 8.32214 22.3818 7.11147 18.8363L7.10521 18.8276Z" fill="#34A853"/>
<path d="M2.01903 9.24985C0.975472 11.2679 0.377197 13.5452 0.377197 15.9725C0.377197 18.3997 0.975472 20.677 2.01903 22.6951C2.01903 22.7086 7.11194 18.8224 7.11194 18.8224C6.80582 17.9224 6.62487 16.9679 6.62487 15.9723C6.62487 14.9767 6.80582 14.0222 7.11194 13.1223L2.01903 9.24985Z" fill="#FBBC05"/>
<path d="M15.6833 6.94531C17.9375 6.94531 19.9412 7.70892 21.5414 9.18167L25.9245 4.88627C23.2668 2.45905 19.816 0.972595 15.6833 0.972595C9.69995 0.972595 4.53762 4.34076 2.01904 9.24986L7.1118 13.1226C8.32232 9.5771 11.7037 6.94531 15.6833 6.94531Z" fill="#EA4335"/>
</svg>
