<svg width="31" height="31" viewBox="0 0 31 31" fill="none" xmlns="http://www.w3.org/2000/svg">
<g clip-path="url(#clip0_105_212)">
<path d="M30.1886 15.9726C30.1886 7.6884 23.4728 0.972595 15.1886 0.972595C6.9044 0.972595 0.188599 7.6884 0.188599 15.9726C0.188599 23.007 5.0318 28.9098 11.5652 30.531V20.5566H8.4722V15.9726H11.5652V13.9974C11.5652 8.892 13.8758 6.5256 18.8882 6.5256C19.8386 6.5256 21.4784 6.7122 22.1492 6.8982V11.0532C21.7952 11.016 21.1802 10.9974 20.4164 10.9974C17.957 10.9974 17.0066 11.9292 17.0066 14.3514V15.9726H21.9062L21.0644 20.5566H17.0066V30.8628C24.434 29.9658 30.1892 23.6418 30.1892 15.9726H30.1886Z" fill="#0866FF"/>
<path d="M21.0638 20.5566L21.9056 15.9726H17.006V14.3514C17.006 11.9292 17.9564 10.9974 20.4158 10.9974C21.1796 10.9974 21.7946 11.016 22.1486 11.0532V6.8982C21.4778 6.7116 19.838 6.5256 18.8876 6.5256C13.8752 6.5256 11.5646 8.892 11.5646 13.9974V15.9726H8.47156V20.5566H11.5646V30.531C12.725 30.819 13.9388 30.9726 15.188 30.9726C15.803 30.9726 16.4096 30.9348 17.0054 30.8628V20.5566H21.0632H21.0638Z" fill="white"/>
</g>
<defs>
<clipPath id="clip0_105_212">
<rect width="30" height="30" fill="white" transform="translate(0.188599 0.972595)"/>
</clipPath>
</defs>
</svg>
