<svg width="313" height="49" viewBox="0 0 313 49" fill="none" xmlns="http://www.w3.org/2000/svg">
<path d="M6.73871 41.1759H2.78671L2.05871 43.1909H0.810714L4.08671 34.1819H5.45171L8.71471 43.1909H7.46671L6.73871 41.1759ZM6.40071 40.2139L4.76271 35.6379L3.12471 40.2139H6.40071ZM13.1663 39.6159C13.1663 38.8793 13.3136 38.2379 13.6083 37.6919C13.903 37.1373 14.3103 36.7083 14.8303 36.4049C15.359 36.1016 15.9613 35.9499 16.6373 35.9499C17.5126 35.9499 18.232 36.1623 18.7953 36.5869C19.3673 37.0116 19.7443 37.6009 19.9263 38.3549H18.6523C18.531 37.9216 18.2926 37.5793 17.9373 37.3279C17.5906 37.0766 17.1573 36.9509 16.6373 36.9509C15.9613 36.9509 15.4153 37.1849 14.9993 37.6529C14.5833 38.1123 14.3753 38.7666 14.3753 39.6159C14.3753 40.4739 14.5833 41.1369 14.9993 41.6049C15.4153 42.0729 15.9613 42.3069 16.6373 42.3069C17.1573 42.3069 17.5906 42.1856 17.9373 41.9429C18.284 41.7003 18.5223 41.3536 18.6523 40.9029H19.9263C19.7356 41.6309 19.3543 42.2159 18.7823 42.6579C18.2103 43.0913 17.4953 43.3079 16.6373 43.3079C15.9613 43.3079 15.359 43.1563 14.8303 42.8529C14.3103 42.5496 13.903 42.1206 13.6083 41.5659C13.3136 41.0113 13.1663 40.3613 13.1663 39.6159ZM24.6118 43.3079C23.9445 43.3079 23.3378 43.1563 22.7918 42.8529C22.2545 42.5496 21.8298 42.1206 21.5178 41.5659C21.2145 41.0026 21.0628 40.3526 21.0628 39.6159C21.0628 38.8879 21.2188 38.2466 21.5308 37.6919C21.8515 37.1286 22.2848 36.6996 22.8308 36.4049C23.3768 36.1016 23.9878 35.9499 24.6638 35.9499C25.3398 35.9499 25.9508 36.1016 26.4968 36.4049C27.0428 36.6996 27.4718 37.1243 27.7838 37.6789C28.1045 38.2336 28.2648 38.8793 28.2648 39.6159C28.2648 40.3526 28.1001 41.0026 27.7708 41.5659C27.4501 42.1206 27.0125 42.5496 26.4578 42.8529C25.9031 43.1563 25.2878 43.3079 24.6118 43.3079ZM24.6118 42.2679C25.0365 42.2679 25.4351 42.1683 25.8078 41.9689C26.1805 41.7696 26.4795 41.4706 26.7048 41.0719C26.9388 40.6733 27.0558 40.1879 27.0558 39.6159C27.0558 39.0439 26.9431 38.5586 26.7178 38.1599C26.4925 37.7613 26.1978 37.4666 25.8338 37.2759C25.4698 37.0766 25.0755 36.9769 24.6508 36.9769C24.2175 36.9769 23.8188 37.0766 23.4548 37.2759C23.0995 37.4666 22.8135 37.7613 22.5968 38.1599C22.3801 38.5586 22.2718 39.0439 22.2718 39.6159C22.2718 40.1966 22.3758 40.6863 22.5838 41.0849C22.8005 41.4836 23.0865 41.7826 23.4418 41.9819C23.7971 42.1726 24.1871 42.2679 24.6118 42.2679ZM38.3872 35.9369C38.9419 35.9369 39.4359 36.0539 39.8692 36.2879C40.3025 36.5133 40.6449 36.8556 40.8962 37.3149C41.1475 37.7743 41.2732 38.3333 41.2732 38.9919V43.1909H40.1032V39.1609C40.1032 38.4503 39.9255 37.9086 39.5702 37.5359C39.2235 37.1546 38.7512 36.9639 38.1532 36.9639C37.5379 36.9639 37.0482 37.1633 36.6842 37.5619C36.3202 37.9519 36.1382 38.5196 36.1382 39.2649V43.1909H34.9682V39.1609C34.9682 38.4503 34.7905 37.9086 34.4352 37.5359C34.0885 37.1546 33.6162 36.9639 33.0182 36.9639C32.4029 36.9639 31.9132 37.1633 31.5492 37.5619C31.1852 37.9519 31.0032 38.5196 31.0032 39.2649V43.1909H29.8202V36.0669H31.0032V37.0939C31.2372 36.7213 31.5492 36.4353 31.9392 36.2359C32.3379 36.0366 32.7755 35.9369 33.2522 35.9369C33.8502 35.9369 34.3789 36.0713 34.8382 36.3399C35.2975 36.6086 35.6399 37.0029 35.8652 37.5229C36.0645 37.0203 36.3939 36.6303 36.8532 36.3529C37.3125 36.0756 37.8239 35.9369 38.3872 35.9369ZM51.7808 35.9369C52.3354 35.9369 52.8294 36.0539 53.2628 36.2879C53.6961 36.5133 54.0384 36.8556 54.2898 37.3149C54.5411 37.7743 54.6668 38.3333 54.6668 38.9919V43.1909H53.4968V39.1609C53.4968 38.4503 53.3191 37.9086 52.9638 37.5359C52.6171 37.1546 52.1448 36.9639 51.5468 36.9639C50.9314 36.9639 50.4418 37.1633 50.0778 37.5619C49.7138 37.9519 49.5318 38.5196 49.5318 39.2649V43.1909H48.3618V39.1609C48.3618 38.4503 48.1841 37.9086 47.8288 37.5359C47.4821 37.1546 47.0098 36.9639 46.4118 36.9639C45.7964 36.9639 45.3068 37.1633 44.9428 37.5619C44.5788 37.9519 44.3968 38.5196 44.3968 39.2649V43.1909H43.2138V36.0669H44.3968V37.0939C44.6308 36.7213 44.9428 36.4353 45.3328 36.2359C45.7314 36.0366 46.1691 35.9369 46.6458 35.9369C47.2438 35.9369 47.7724 36.0713 48.2318 36.3399C48.6911 36.6086 49.0334 37.0029 49.2588 37.5229C49.4581 37.0203 49.7874 36.6303 50.2468 36.3529C50.7061 36.0756 51.2174 35.9369 51.7808 35.9369ZM62.9253 36.0669V43.1909H61.7423V42.1379C61.517 42.5019 61.2007 42.7879 60.7933 42.9959C60.3947 43.1953 59.9527 43.2949 59.4673 43.2949C58.9127 43.2949 58.4143 43.1823 57.9723 42.9569C57.5303 42.7229 57.1793 42.3763 56.9193 41.9169C56.668 41.4576 56.5423 40.8986 56.5423 40.2399V36.0669H57.7123V40.0839C57.7123 40.7859 57.89 41.3276 58.2453 41.7089C58.6007 42.0816 59.086 42.2679 59.7013 42.2679C60.334 42.2679 60.8323 42.0729 61.1963 41.6829C61.5603 41.2929 61.7423 40.7253 61.7423 39.9799V36.0669H62.9253ZM68.3938 35.9369C69.2604 35.9369 69.9624 36.2013 70.4998 36.7299C71.0371 37.2499 71.3058 38.0039 71.3058 38.9919V43.1909H70.1358V39.1609C70.1358 38.4503 69.9581 37.9086 69.6028 37.5359C69.2474 37.1546 68.7621 36.9639 68.1468 36.9639C67.5228 36.9639 67.0244 37.1589 66.6518 37.5489C66.2878 37.9389 66.1058 38.5066 66.1058 39.2519V43.1909H64.9228V36.0669H66.1058V37.0809C66.3398 36.7169 66.6561 36.4353 67.0548 36.2359C67.4621 36.0366 67.9084 35.9369 68.3938 35.9369ZM73.8492 34.9099C73.6238 34.9099 73.4332 34.8319 73.2772 34.6759C73.1212 34.5199 73.0432 34.3293 73.0432 34.1039C73.0432 33.8786 73.1212 33.6879 73.2772 33.5319C73.4332 33.3759 73.6238 33.2979 73.8492 33.2979C74.0658 33.2979 74.2478 33.3759 74.3952 33.5319C74.5512 33.6879 74.6292 33.8786 74.6292 34.1039C74.6292 34.3293 74.5512 34.5199 74.3952 34.6759C74.2478 34.8319 74.0658 34.9099 73.8492 34.9099ZM74.4212 36.0669V43.1909H73.2382V36.0669H74.4212ZM77.8804 37.0419V41.2409C77.8804 41.5876 77.9541 41.8346 78.1014 41.9819C78.2487 42.1206 78.5044 42.1899 78.8684 42.1899H79.7394V43.1909H78.6734C78.0147 43.1909 77.5207 43.0393 77.1914 42.7359C76.8621 42.4326 76.6974 41.9343 76.6974 41.2409V37.0419H75.7744V36.0669H76.6974V34.2729H77.8804V36.0669H79.7394V37.0419H77.8804ZM87.3088 36.0669L83.0188 46.5449H81.7968L83.2008 43.1129L80.3278 36.0669H81.6408L83.8768 41.8389L86.0868 36.0669H87.3088ZM91.5218 39.6029C91.5218 38.8749 91.6691 38.2379 91.9638 37.6919C92.2584 37.1373 92.6614 36.7083 93.1728 36.4049C93.6928 36.1016 94.2691 35.9499 94.9018 35.9499C95.5258 35.9499 96.0674 36.0843 96.5268 36.3529C96.9861 36.6216 97.3284 36.9596 97.5538 37.3669V36.0669H98.7498V43.1909H97.5538V41.8649C97.3198 42.2809 96.9688 42.6276 96.5008 42.9049C96.0414 43.1736 95.5041 43.3079 94.8888 43.3079C94.2561 43.3079 93.6841 43.1519 93.1728 42.8399C92.6614 42.5279 92.2584 42.0903 91.9638 41.5269C91.6691 40.9636 91.5218 40.3223 91.5218 39.6029ZM97.5538 39.6159C97.5538 39.0786 97.4454 38.6106 97.2288 38.2119C97.0121 37.8133 96.7174 37.5099 96.3448 37.3019C95.9808 37.0853 95.5778 36.9769 95.1358 36.9769C94.6938 36.9769 94.2908 37.0809 93.9268 37.2889C93.5628 37.4969 93.2724 37.8003 93.0558 38.1989C92.8391 38.5976 92.7308 39.0656 92.7308 39.6029C92.7308 40.1489 92.8391 40.6256 93.0558 41.0329C93.2724 41.4316 93.5628 41.7393 93.9268 41.9559C94.2908 42.1639 94.6938 42.2679 95.1358 42.2679C95.5778 42.2679 95.9808 42.1639 96.3448 41.9559C96.7174 41.7393 97.0121 41.4316 97.2288 41.0329C97.4454 40.6256 97.5538 40.1533 97.5538 39.6159ZM101.932 37.3799C102.166 36.9726 102.513 36.6346 102.972 36.3659C103.44 36.0886 103.982 35.9499 104.597 35.9499C105.23 35.9499 105.802 36.1016 106.313 36.4049C106.833 36.7083 107.24 37.1373 107.535 37.6919C107.83 38.2379 107.977 38.8749 107.977 39.6029C107.977 40.3223 107.83 40.9636 107.535 41.5269C107.24 42.0903 106.833 42.5279 106.313 42.8399C105.802 43.1519 105.23 43.3079 104.597 43.3079C103.99 43.3079 103.453 43.1736 102.985 42.9049C102.526 42.6276 102.175 42.2853 101.932 41.8779V46.5709H100.749V36.0669H101.932V37.3799ZM106.768 39.6029C106.768 39.0656 106.66 38.5976 106.443 38.1989C106.226 37.8003 105.932 37.4969 105.559 37.2889C105.195 37.0809 104.792 36.9769 104.35 36.9769C103.917 36.9769 103.514 37.0853 103.141 37.3019C102.777 37.5099 102.482 37.8176 102.257 38.2249C102.04 38.6236 101.932 39.0873 101.932 39.6159C101.932 40.1533 102.04 40.6256 102.257 41.0329C102.482 41.4316 102.777 41.7393 103.141 41.9559C103.514 42.1639 103.917 42.2679 104.35 42.2679C104.792 42.2679 105.195 42.1639 105.559 41.9559C105.932 41.7393 106.226 41.4316 106.443 41.0329C106.66 40.6256 106.768 40.1489 106.768 39.6029ZM110.717 37.3799C110.951 36.9726 111.298 36.6346 111.757 36.3659C112.225 36.0886 112.767 35.9499 113.382 35.9499C114.015 35.9499 114.587 36.1016 115.098 36.4049C115.618 36.7083 116.025 37.1373 116.32 37.6919C116.615 38.2379 116.762 38.8749 116.762 39.6029C116.762 40.3223 116.615 40.9636 116.32 41.5269C116.025 42.0903 115.618 42.5279 115.098 42.8399C114.587 43.1519 114.015 43.3079 113.382 43.3079C112.775 43.3079 112.238 43.1736 111.77 42.9049C111.311 42.6276 110.96 42.2853 110.717 41.8779V46.5709H109.534V36.0669H110.717V37.3799ZM115.553 39.6029C115.553 39.0656 115.445 38.5976 115.228 38.1989C115.011 37.8003 114.717 37.4969 114.344 37.2889C113.98 37.0809 113.577 36.9769 113.135 36.9769C112.702 36.9769 112.299 37.0853 111.926 37.3019C111.562 37.5099 111.267 37.8176 111.042 38.2249C110.825 38.6236 110.717 39.0873 110.717 39.6159C110.717 40.1533 110.825 40.6256 111.042 41.0329C111.267 41.4316 111.562 41.7393 111.926 41.9559C112.299 42.1639 112.702 42.2679 113.135 42.2679C113.577 42.2679 113.98 42.1639 114.344 41.9559C114.717 41.7393 115.011 41.4316 115.228 41.0329C115.445 40.6256 115.553 40.1489 115.553 39.6029ZM124.684 37.0419H123.189V43.1909H122.006V37.0419H121.083V36.0669H122.006V35.5599C122.006 34.7626 122.21 34.1819 122.617 33.8179C123.033 33.4453 123.696 33.2589 124.606 33.2589V34.2469C124.086 34.2469 123.718 34.3509 123.501 34.5589C123.293 34.7583 123.189 35.0919 123.189 35.5599V36.0669H124.684V37.0419ZM129.17 43.3079C128.503 43.3079 127.896 43.1563 127.35 42.8529C126.813 42.5496 126.388 42.1206 126.076 41.5659C125.773 41.0026 125.621 40.3526 125.621 39.6159C125.621 38.8879 125.777 38.2466 126.089 37.6919C126.41 37.1286 126.843 36.6996 127.389 36.4049C127.935 36.1016 128.546 35.9499 129.222 35.9499C129.898 35.9499 130.509 36.1016 131.055 36.4049C131.601 36.6996 132.03 37.1243 132.342 37.6789C132.663 38.2336 132.823 38.8793 132.823 39.6159C132.823 40.3526 132.659 41.0026 132.329 41.5659C132.009 42.1206 131.571 42.5496 131.016 42.8529C130.462 43.1563 129.846 43.3079 129.17 43.3079ZM129.17 42.2679C129.595 42.2679 129.994 42.1683 130.366 41.9689C130.739 41.7696 131.038 41.4706 131.263 41.0719C131.497 40.6733 131.614 40.1879 131.614 39.6159C131.614 39.0439 131.502 38.5586 131.276 38.1599C131.051 37.7613 130.756 37.4666 130.392 37.2759C130.028 37.0766 129.634 36.9769 129.209 36.9769C128.776 36.9769 128.377 37.0766 128.013 37.2759C127.658 37.4666 127.372 37.7613 127.155 38.1599C126.939 38.5586 126.83 39.0439 126.83 39.6159C126.83 40.1966 126.934 40.6863 127.142 41.0849C127.359 41.4836 127.645 41.7826 128 41.9819C128.356 42.1726 128.746 42.2679 129.17 42.2679ZM135.562 37.2239C135.77 36.8166 136.064 36.5003 136.446 36.2749C136.836 36.0496 137.308 35.9369 137.863 35.9369V37.1589H137.551C136.225 37.1589 135.562 37.8783 135.562 39.3169V43.1909H134.379V36.0669H135.562V37.2239ZM144.137 37.0419V41.2409C144.137 41.5876 144.211 41.8346 144.358 41.9819C144.506 42.1206 144.761 42.1899 145.125 42.1899H145.996V43.1909H144.93C144.272 43.1909 143.778 43.0393 143.448 42.7359C143.119 42.4326 142.954 41.9343 142.954 41.2409V37.0419H142.031V36.0669H142.954V34.2729H144.137V36.0669H145.996V37.0419H144.137ZM150.966 35.9369C151.503 35.9369 151.988 36.0539 152.422 36.2879C152.855 36.5133 153.193 36.8556 153.436 37.3149C153.687 37.7743 153.813 38.3333 153.813 38.9919V43.1909H152.643V39.1609C152.643 38.4503 152.465 37.9086 152.11 37.5359C151.754 37.1546 151.269 36.9639 150.654 36.9639C150.03 36.9639 149.531 37.1589 149.159 37.5489C148.795 37.9389 148.613 38.5066 148.613 39.2519V43.1909H147.43V33.5709H148.613V37.0809C148.847 36.7169 149.167 36.4353 149.575 36.2359C149.991 36.0366 150.454 35.9369 150.966 35.9369ZM162.245 39.3559C162.245 39.5813 162.232 39.8196 162.206 40.0709H156.512C156.555 40.7729 156.794 41.3233 157.227 41.7219C157.669 42.1119 158.202 42.3069 158.826 42.3069C159.337 42.3069 159.762 42.1899 160.1 41.9559C160.447 41.7133 160.689 41.3926 160.828 40.9939H162.102C161.911 41.6786 161.53 42.2376 160.958 42.6709C160.386 43.0956 159.675 43.3079 158.826 43.3079C158.15 43.3079 157.543 43.1563 157.006 42.8529C156.477 42.5496 156.061 42.1206 155.758 41.5659C155.455 41.0026 155.303 40.3526 155.303 39.6159C155.303 38.8793 155.45 38.2336 155.745 37.6789C156.04 37.1243 156.451 36.6996 156.98 36.4049C157.517 36.1016 158.133 35.9499 158.826 35.9499C159.502 35.9499 160.1 36.0973 160.62 36.3919C161.14 36.6866 161.539 37.0939 161.816 37.6139C162.102 38.1253 162.245 38.7059 162.245 39.3559ZM161.023 39.1089C161.023 38.6583 160.923 38.2726 160.724 37.9519C160.525 37.6226 160.252 37.3756 159.905 37.2109C159.567 37.0376 159.19 36.9509 158.774 36.9509C158.176 36.9509 157.665 37.1416 157.24 37.5229C156.824 37.9043 156.586 38.4329 156.525 39.1089H161.023ZM168.455 37.3799C168.689 36.9726 169.036 36.6346 169.495 36.3659C169.963 36.0886 170.505 35.9499 171.12 35.9499C171.753 35.9499 172.325 36.1016 172.836 36.4049C173.356 36.7083 173.764 37.1373 174.058 37.6919C174.353 38.2379 174.5 38.8749 174.5 39.6029C174.5 40.3223 174.353 40.9636 174.058 41.5269C173.764 42.0903 173.356 42.5279 172.836 42.8399C172.325 43.1519 171.753 43.3079 171.12 43.3079C170.514 43.3079 169.976 43.1736 169.508 42.9049C169.049 42.6276 168.698 42.2853 168.455 41.8779V46.5709H167.272V36.0669H168.455V37.3799ZM173.291 39.6029C173.291 39.0656 173.183 38.5976 172.966 38.1989C172.75 37.8003 172.455 37.4969 172.082 37.2889C171.718 37.0809 171.315 36.9769 170.873 36.9769C170.44 36.9769 170.037 37.0853 169.664 37.3019C169.3 37.5099 169.006 37.8176 168.78 38.2249C168.564 38.6236 168.455 39.0873 168.455 39.6159C168.455 40.1533 168.564 40.6256 168.78 41.0329C169.006 41.4316 169.3 41.7393 169.664 41.9559C170.037 42.1639 170.44 42.2679 170.873 42.2679C171.315 42.2679 171.718 42.1639 172.082 41.9559C172.455 41.7393 172.75 41.4316 172.966 41.0329C173.183 40.6256 173.291 40.1489 173.291 39.6029ZM182.558 39.3559C182.558 39.5813 182.545 39.8196 182.519 40.0709H176.825C176.868 40.7729 177.106 41.3233 177.54 41.7219C177.982 42.1119 178.515 42.3069 179.139 42.3069C179.65 42.3069 180.075 42.1899 180.413 41.9559C180.759 41.7133 181.002 41.3926 181.141 40.9939H182.415C182.224 41.6786 181.843 42.2376 181.271 42.6709C180.699 43.0956 179.988 43.3079 179.139 43.3079C178.463 43.3079 177.856 43.1563 177.319 42.8529C176.79 42.5496 176.374 42.1206 176.071 41.5659C175.767 41.0026 175.616 40.3526 175.616 39.6159C175.616 38.8793 175.763 38.2336 176.058 37.6789C176.352 37.1243 176.764 36.6996 177.293 36.4049C177.83 36.1016 178.445 35.9499 179.139 35.9499C179.815 35.9499 180.413 36.0973 180.933 36.3919C181.453 36.6866 181.851 37.0939 182.129 37.6139C182.415 38.1253 182.558 38.7059 182.558 39.3559ZM181.336 39.1089C181.336 38.6583 181.236 38.2726 181.037 37.9519C180.837 37.6226 180.564 37.3756 180.218 37.2109C179.88 37.0376 179.503 36.9509 179.087 36.9509C178.489 36.9509 177.977 37.1416 177.553 37.5229C177.137 37.9043 176.898 38.4329 176.838 39.1089H181.336ZM187.226 43.3079C186.559 43.3079 185.952 43.1563 185.406 42.8529C184.869 42.5496 184.444 42.1206 184.132 41.5659C183.829 41.0026 183.677 40.3526 183.677 39.6159C183.677 38.8879 183.833 38.2466 184.145 37.6919C184.466 37.1286 184.899 36.6996 185.445 36.4049C185.991 36.1016 186.602 35.9499 187.278 35.9499C187.954 35.9499 188.565 36.1016 189.111 36.4049C189.657 36.6996 190.086 37.1243 190.398 37.6789C190.719 38.2336 190.879 38.8793 190.879 39.6159C190.879 40.3526 190.714 41.0026 190.385 41.5659C190.064 42.1206 189.627 42.5496 189.072 42.8529C188.517 43.1563 187.902 43.3079 187.226 43.3079ZM187.226 42.2679C187.651 42.2679 188.049 42.1683 188.422 41.9689C188.795 41.7696 189.094 41.4706 189.319 41.0719C189.553 40.6733 189.67 40.1879 189.67 39.6159C189.67 39.0439 189.557 38.5586 189.332 38.1599C189.107 37.7613 188.812 37.4666 188.448 37.2759C188.084 37.0766 187.69 36.9769 187.265 36.9769C186.832 36.9769 186.433 37.0766 186.069 37.2759C185.714 37.4666 185.428 37.7613 185.211 38.1599C184.994 38.5586 184.886 39.0439 184.886 39.6159C184.886 40.1966 184.99 40.6863 185.198 41.0849C185.415 41.4836 185.701 41.7826 186.056 41.9819C186.411 42.1726 186.801 42.2679 187.226 42.2679ZM193.617 37.3799C193.851 36.9726 194.198 36.6346 194.657 36.3659C195.125 36.0886 195.667 35.9499 196.282 35.9499C196.915 35.9499 197.487 36.1016 197.998 36.4049C198.518 36.7083 198.926 37.1373 199.22 37.6919C199.515 38.2379 199.662 38.8749 199.662 39.6029C199.662 40.3223 199.515 40.9636 199.22 41.5269C198.926 42.0903 198.518 42.5279 197.998 42.8399C197.487 43.1519 196.915 43.3079 196.282 43.3079C195.676 43.3079 195.138 43.1736 194.67 42.9049C194.211 42.6276 193.86 42.2853 193.617 41.8779V46.5709H192.434V36.0669H193.617V37.3799ZM198.453 39.6029C198.453 39.0656 198.345 38.5976 198.128 38.1989C197.912 37.8003 197.617 37.4969 197.244 37.2889C196.88 37.0809 196.477 36.9769 196.035 36.9769C195.602 36.9769 195.199 37.0853 194.826 37.3019C194.462 37.5099 194.168 37.8176 193.942 38.2249C193.726 38.6236 193.617 39.0873 193.617 39.6159C193.617 40.1533 193.726 40.6256 193.942 41.0329C194.168 41.4316 194.462 41.7393 194.826 41.9559C195.199 42.1639 195.602 42.2679 196.035 42.2679C196.477 42.2679 196.88 42.1639 197.244 41.9559C197.617 41.7393 197.912 41.4316 198.128 41.0329C198.345 40.6256 198.453 40.1489 198.453 39.6029ZM202.403 33.5709V43.1909H201.22V33.5709H202.403ZM210.919 39.3559C210.919 39.5813 210.906 39.8196 210.88 40.0709H205.186C205.229 40.7729 205.468 41.3233 205.901 41.7219C206.343 42.1119 206.876 42.3069 207.5 42.3069C208.011 42.3069 208.436 42.1899 208.774 41.9559C209.121 41.7133 209.363 41.3926 209.502 40.9939H210.776C210.585 41.6786 210.204 42.2376 209.632 42.6709C209.06 43.0956 208.349 43.3079 207.5 43.3079C206.824 43.3079 206.217 43.1563 205.68 42.8529C205.151 42.5496 204.735 42.1206 204.432 41.5659C204.129 41.0026 203.977 40.3526 203.977 39.6159C203.977 38.8793 204.124 38.2336 204.419 37.6789C204.714 37.1243 205.125 36.6996 205.654 36.4049C206.191 36.1016 206.807 35.9499 207.5 35.9499C208.176 35.9499 208.774 36.0973 209.294 36.3919C209.814 36.6866 210.213 37.0939 210.49 37.6139C210.776 38.1253 210.919 38.7059 210.919 39.3559ZM209.697 39.1089C209.697 38.6583 209.597 38.2726 209.398 37.9519C209.199 37.6226 208.926 37.3756 208.579 37.2109C208.241 37.0376 207.864 36.9509 207.448 36.9509C206.85 36.9509 206.339 37.1416 205.914 37.5229C205.498 37.9043 205.26 38.4329 205.199 39.1089H209.697ZM219.053 43.3079C218.386 43.3079 217.779 43.1563 217.233 42.8529C216.696 42.5496 216.271 42.1206 215.959 41.5659C215.656 41.0026 215.504 40.3526 215.504 39.6159C215.504 38.8879 215.66 38.2466 215.972 37.6919C216.293 37.1286 216.726 36.6996 217.272 36.4049C217.818 36.1016 218.429 35.9499 219.105 35.9499C219.781 35.9499 220.392 36.1016 220.938 36.4049C221.484 36.6996 221.913 37.1243 222.225 37.6789C222.546 38.2336 222.706 38.8793 222.706 39.6159C222.706 40.3526 222.542 41.0026 222.212 41.5659C221.892 42.1206 221.454 42.5496 220.899 42.8529C220.345 43.1563 219.729 43.3079 219.053 43.3079ZM219.053 42.2679C219.478 42.2679 219.877 42.1683 220.249 41.9689C220.622 41.7696 220.921 41.4706 221.146 41.0719C221.38 40.6733 221.497 40.1879 221.497 39.6159C221.497 39.0439 221.385 38.5586 221.159 38.1599C220.934 37.7613 220.639 37.4666 220.275 37.2759C219.911 37.0766 219.517 36.9769 219.092 36.9769C218.659 36.9769 218.26 37.0766 217.896 37.2759C217.541 37.4666 217.255 37.7613 217.038 38.1599C216.822 38.5586 216.713 39.0439 216.713 39.6159C216.713 40.1966 216.817 40.6863 217.025 41.0849C217.242 41.4836 217.528 41.7826 217.883 41.9819C218.239 42.1726 218.629 42.2679 219.053 42.2679ZM227.161 37.0419H225.666V43.1909H224.483V37.0419H223.56V36.0669H224.483V35.5599C224.483 34.7626 224.686 34.1819 225.094 33.8179C225.51 33.4453 226.173 33.2589 227.083 33.2589V34.2469C226.563 34.2469 226.194 34.3509 225.978 34.5589C225.77 34.7583 225.666 35.0919 225.666 35.5599V36.0669H227.161V37.0419ZM241.197 34.1949V43.1909H240.014V36.4829L237.024 43.1909H236.192L233.189 36.4699V43.1909H232.006V34.1949H233.28L236.608 41.6309L239.936 34.1949H241.197ZM242.761 39.6029C242.761 38.8749 242.908 38.2379 243.203 37.6919C243.498 37.1373 243.901 36.7083 244.412 36.4049C244.932 36.1016 245.508 35.9499 246.141 35.9499C246.765 35.9499 247.307 36.0843 247.766 36.3529C248.225 36.6216 248.568 36.9596 248.793 37.3669V36.0669H249.989V43.1909H248.793V41.8649C248.559 42.2809 248.208 42.6276 247.74 42.9049C247.281 43.1736 246.743 43.3079 246.128 43.3079C245.495 43.3079 244.923 43.1519 244.412 42.8399C243.901 42.5279 243.498 42.0903 243.203 41.5269C242.908 40.9636 242.761 40.3223 242.761 39.6029ZM248.793 39.6159C248.793 39.0786 248.685 38.6106 248.468 38.2119C248.251 37.8133 247.957 37.5099 247.584 37.3019C247.22 37.0853 246.817 36.9769 246.375 36.9769C245.933 36.9769 245.53 37.0809 245.166 37.2889C244.802 37.4969 244.512 37.8003 244.295 38.1989C244.078 38.5976 243.97 39.0656 243.97 39.6029C243.97 40.1489 244.078 40.6256 244.295 41.0329C244.512 41.4316 244.802 41.7393 245.166 41.9559C245.53 42.1639 245.933 42.2679 246.375 42.2679C246.817 42.2679 247.22 42.1639 247.584 41.9559C247.957 41.7393 248.251 41.4316 248.468 41.0329C248.685 40.6256 248.793 40.1533 248.793 39.6159ZM253.171 33.5709V43.1909H251.988V33.5709H253.171ZM254.745 39.6029C254.745 38.8749 254.893 38.2379 255.187 37.6919C255.482 37.1373 255.885 36.7083 256.396 36.4049C256.916 36.1016 257.493 35.9499 258.125 35.9499C258.749 35.9499 259.291 36.0843 259.75 36.3529C260.21 36.6216 260.552 36.9596 260.777 37.3669V36.0669H261.973V43.1909H260.777V41.8649C260.543 42.2809 260.192 42.6276 259.724 42.9049C259.265 43.1736 258.728 43.3079 258.112 43.3079C257.48 43.3079 256.908 43.1519 256.396 42.8399C255.885 42.5279 255.482 42.0903 255.187 41.5269C254.893 40.9636 254.745 40.3223 254.745 39.6029ZM260.777 39.6159C260.777 39.0786 260.669 38.6106 260.452 38.2119C260.236 37.8133 259.941 37.5099 259.568 37.3019C259.204 37.0853 258.801 36.9769 258.359 36.9769C257.917 36.9769 257.514 37.0809 257.15 37.2889C256.786 37.4969 256.496 37.8003 256.279 38.1989C256.063 38.5976 255.954 39.0656 255.954 39.6029C255.954 40.1489 256.063 40.6256 256.279 41.0329C256.496 41.4316 256.786 41.7393 257.15 41.9559C257.514 42.1639 257.917 42.2679 258.359 42.2679C258.801 42.2679 259.204 42.1639 259.568 41.9559C259.941 41.7393 260.236 41.4316 260.452 41.0329C260.669 40.6256 260.777 40.1533 260.777 39.6159ZM270.109 36.0669L265.819 46.5449H264.597L266.001 43.1129L263.128 36.0669H264.441L266.677 41.8389L268.887 36.0669H270.109ZM272.481 37.3929C272.723 36.9683 273.079 36.6216 273.547 36.3529C274.015 36.0843 274.548 35.9499 275.146 35.9499C275.787 35.9499 276.363 36.1016 276.875 36.4049C277.386 36.7083 277.789 37.1373 278.084 37.6919C278.378 38.2379 278.526 38.8749 278.526 39.6029C278.526 40.3223 278.378 40.9636 278.084 41.5269C277.789 42.0903 277.382 42.5279 276.862 42.8399C276.35 43.1519 275.778 43.3079 275.146 43.3079C274.53 43.3079 273.989 43.1736 273.521 42.9049C273.061 42.6363 272.715 42.2939 272.481 41.8779V43.1909H271.298V33.5709H272.481V37.3929ZM277.317 39.6029C277.317 39.0656 277.208 38.5976 276.992 38.1989C276.775 37.8003 276.48 37.4969 276.108 37.2889C275.744 37.0809 275.341 36.9769 274.899 36.9769C274.465 36.9769 274.062 37.0853 273.69 37.3019C273.326 37.5099 273.031 37.8176 272.806 38.2249C272.589 38.6236 272.481 39.0873 272.481 39.6159C272.481 40.1533 272.589 40.6256 272.806 41.0329C273.031 41.4316 273.326 41.7393 273.69 41.9559C274.062 42.1639 274.465 42.2679 274.899 42.2679C275.341 42.2679 275.744 42.1639 276.108 41.9559C276.48 41.7393 276.775 41.4316 276.992 41.0329C277.208 40.6256 277.317 40.1489 277.317 39.6029ZM279.641 39.6029C279.641 38.8749 279.788 38.2379 280.083 37.6919C280.378 37.1373 280.781 36.7083 281.292 36.4049C281.812 36.1016 282.388 35.9499 283.021 35.9499C283.645 35.9499 284.187 36.0843 284.646 36.3529C285.105 36.6216 285.448 36.9596 285.673 37.3669V36.0669H286.869V43.1909H285.673V41.8649C285.439 42.2809 285.088 42.6276 284.62 42.9049C284.161 43.1736 283.623 43.3079 283.008 43.3079C282.375 43.3079 281.803 43.1519 281.292 42.8399C280.781 42.5279 280.378 42.0903 280.083 41.5269C279.788 40.9636 279.641 40.3223 279.641 39.6029ZM285.673 39.6159C285.673 39.0786 285.565 38.6106 285.348 38.2119C285.131 37.8133 284.837 37.5099 284.464 37.3019C284.1 37.0853 283.697 36.9769 283.255 36.9769C282.813 36.9769 282.41 37.0809 282.046 37.2889C281.682 37.4969 281.392 37.8003 281.175 38.1989C280.958 38.5976 280.85 39.0656 280.85 39.6029C280.85 40.1489 280.958 40.6256 281.175 41.0329C281.392 41.4316 281.682 41.7393 282.046 41.9559C282.41 42.1639 282.813 42.2679 283.255 42.2679C283.697 42.2679 284.1 42.1639 284.464 41.9559C284.837 41.7393 285.131 41.4316 285.348 41.0329C285.565 40.6256 285.673 40.1533 285.673 39.6159ZM290.051 33.5709V43.1909H288.868V33.5709H290.051ZM291.625 39.6029C291.625 38.8749 291.773 38.2379 292.067 37.6919C292.362 37.1373 292.765 36.7083 293.276 36.4049C293.796 36.1016 294.373 35.9499 295.005 35.9499C295.629 35.9499 296.171 36.0843 296.63 36.3529C297.09 36.6216 297.432 36.9596 297.657 37.3669V36.0669H298.853V43.1909H297.657V41.8649C297.423 42.2809 297.072 42.6276 296.604 42.9049C296.145 43.1736 295.608 43.3079 294.992 43.3079C294.36 43.3079 293.788 43.1519 293.276 42.8399C292.765 42.5279 292.362 42.0903 292.067 41.5269C291.773 40.9636 291.625 40.3223 291.625 39.6029ZM297.657 39.6159C297.657 39.0786 297.549 38.6106 297.332 38.2119C297.116 37.8133 296.821 37.5099 296.448 37.3019C296.084 37.0853 295.681 36.9769 295.239 36.9769C294.797 36.9769 294.394 37.0809 294.03 37.2889C293.666 37.4969 293.376 37.8003 293.159 38.1989C292.943 38.5976 292.834 39.0656 292.834 39.6029C292.834 40.1489 292.943 40.6256 293.159 41.0329C293.376 41.4316 293.666 41.7393 294.03 41.9559C294.394 42.1639 294.797 42.2679 295.239 42.2679C295.681 42.2679 296.084 42.1639 296.448 41.9559C296.821 41.7393 297.116 41.4316 297.332 41.0329C297.549 40.6256 297.657 40.1533 297.657 39.6159ZM306.988 36.0669L302.698 46.5449H301.476L302.88 43.1129L300.007 36.0669H301.32L303.556 41.8389L305.766 36.0669H306.988Z" fill="black"/>
<path d="M13.5817 16.1909C13.265 15.6076 12.8067 15.1659 12.2067 14.8659C11.6234 14.5493 10.9317 14.3909 10.1317 14.3909C8.74838 14.3909 7.64005 14.8493 6.80671 15.7659C5.97338 16.6659 5.55671 17.8743 5.55671 19.3909C5.55671 21.0076 5.99005 22.2743 6.85671 23.1909C7.74005 24.0909 8.94838 24.5409 10.4817 24.5409C11.5317 24.5409 12.415 24.2743 13.1317 23.7409C13.865 23.2076 14.3984 22.4409 14.7317 21.4409H9.30671V18.2909H18.6067V22.2659C18.29 23.3326 17.7484 24.3243 16.9817 25.2409C16.2317 26.1576 15.2734 26.8993 14.1067 27.4659C12.94 28.0326 11.6234 28.3159 10.1567 28.3159C8.42338 28.3159 6.87338 27.9409 5.50671 27.1909C4.15671 26.4243 3.09838 25.3659 2.33171 24.0159C1.58171 22.6659 1.20671 21.1243 1.20671 19.3909C1.20671 17.6576 1.58171 16.1159 2.33171 14.7659C3.09838 13.3993 4.15671 12.3409 5.50671 11.5909C6.85671 10.8243 8.39838 10.4409 10.1317 10.4409C12.2317 10.4409 13.9984 10.9493 15.4317 11.9659C16.8817 12.9826 17.84 14.3909 18.3067 16.1909H13.5817ZM25.2497 14.0659V17.6159H30.9747V20.9159H25.2497V24.7659H31.7247V28.1909H20.9747V10.6409H31.7247V14.0659H25.2497ZM42.8001 28.3659C41.1501 28.3659 39.6334 27.9826 38.2501 27.2159C36.8834 26.4493 35.7917 25.3826 34.9751 24.0159C34.1751 22.6326 33.7751 21.0826 33.7751 19.3659C33.7751 17.6493 34.1751 16.1076 34.9751 14.7409C35.7917 13.3743 36.8834 12.3076 38.2501 11.5409C39.6334 10.7743 41.1501 10.3909 42.8001 10.3909C44.4501 10.3909 45.9584 10.7743 47.3251 11.5409C48.7084 12.3076 49.7917 13.3743 50.5751 14.7409C51.3751 16.1076 51.7751 17.6493 51.7751 19.3659C51.7751 21.0826 51.3751 22.6326 50.5751 24.0159C49.7751 25.3826 48.6917 26.4493 47.3251 27.2159C45.9584 27.9826 44.4501 28.3659 42.8001 28.3659ZM42.8001 24.4659C44.2001 24.4659 45.3167 23.9993 46.1501 23.0659C47.0001 22.1326 47.4251 20.8993 47.4251 19.3659C47.4251 17.8159 47.0001 16.5826 46.1501 15.6659C45.3167 14.7326 44.2001 14.2659 42.8001 14.2659C41.3834 14.2659 40.2501 14.7243 39.4001 15.6409C38.5667 16.5576 38.1501 17.7993 38.1501 19.3659C38.1501 20.9159 38.5667 22.1576 39.4001 23.0909C40.2501 24.0076 41.3834 24.4659 42.8001 24.4659ZM67.5284 16.2909C67.5284 17.3076 67.2951 18.2409 66.8284 19.0909C66.3617 19.9243 65.6451 20.5993 64.6784 21.1159C63.7117 21.6326 62.5117 21.8909 61.0784 21.8909H58.4284V28.1909H54.1534V10.6409H61.0784C62.4784 10.6409 63.6617 10.8826 64.6284 11.3659C65.5951 11.8493 66.3201 12.5159 66.8034 13.3659C67.2867 14.2159 67.5284 15.1909 67.5284 16.2909ZM60.7534 18.4909C61.5701 18.4909 62.1784 18.2993 62.5784 17.9159C62.9784 17.5326 63.1784 16.9909 63.1784 16.2909C63.1784 15.5909 62.9784 15.0493 62.5784 14.6659C62.1784 14.2826 61.5701 14.0909 60.7534 14.0909H58.4284V18.4909H60.7534ZM78.054 28.3659C76.404 28.3659 74.8873 27.9826 73.504 27.2159C72.1373 26.4493 71.0456 25.3826 70.229 24.0159C69.429 22.6326 69.029 21.0826 69.029 19.3659C69.029 17.6493 69.429 16.1076 70.229 14.7409C71.0456 13.3743 72.1373 12.3076 73.504 11.5409C74.8873 10.7743 76.404 10.3909 78.054 10.3909C79.704 10.3909 81.2123 10.7743 82.579 11.5409C83.9623 12.3076 85.0456 13.3743 85.829 14.7409C86.629 16.1076 87.029 17.6493 87.029 19.3659C87.029 21.0826 86.629 22.6326 85.829 24.0159C85.029 25.3826 83.9456 26.4493 82.579 27.2159C81.2123 27.9826 79.704 28.3659 78.054 28.3659ZM78.054 24.4659C79.454 24.4659 80.5706 23.9993 81.404 23.0659C82.254 22.1326 82.679 20.8993 82.679 19.3659C82.679 17.8159 82.254 16.5826 81.404 15.6659C80.5706 14.7326 79.454 14.2659 78.054 14.2659C76.6373 14.2659 75.504 14.7243 74.654 15.6409C73.8206 16.5576 73.404 17.7993 73.404 19.3659C73.404 20.9159 73.8206 22.1576 74.654 23.0909C75.504 24.0076 76.6373 24.4659 78.054 24.4659ZM98.3573 28.1909L94.7073 21.5659H93.6823V28.1909H89.4073V10.6409H96.5823C97.9656 10.6409 99.1406 10.8826 100.107 11.3659C101.091 11.8493 101.824 12.5159 102.307 13.3659C102.791 14.1993 103.032 15.1326 103.032 16.1659C103.032 17.3326 102.699 18.3743 102.032 19.2909C101.382 20.2076 100.416 20.8576 99.1323 21.2409L103.182 28.1909H98.3573ZM93.6823 18.5409H96.3323C97.1156 18.5409 97.699 18.3493 98.0823 17.9659C98.4823 17.5826 98.6823 17.0409 98.6823 16.3409C98.6823 15.6743 98.4823 15.1493 98.0823 14.7659C97.699 14.3826 97.1156 14.1909 96.3323 14.1909H93.6823V18.5409ZM118.341 10.6409V14.0659H113.691V28.1909H109.416V14.0659H104.766V10.6409H118.341ZM145.659 10.6409V28.1909H141.384V17.6659L137.459 28.1909H134.009L130.059 17.6409V28.1909H125.784V10.6409H130.834L135.759 22.7909L140.634 10.6409H145.659ZM159.658 25.0909H153.108L152.058 28.1909H147.583L153.933 10.6409H158.883L165.233 28.1909H160.708L159.658 25.0909ZM158.558 21.7909L156.383 15.3659L154.233 21.7909H158.558ZM171.441 24.8909H177.041V28.1909H167.166V10.6409H171.441V24.8909ZM190.005 25.0909H183.455L182.405 28.1909H177.93L184.28 10.6409H189.23L195.58 28.1909H191.055L190.005 25.0909ZM188.905 21.7909L186.73 15.3659L184.58 21.7909H188.905ZM212.563 10.6409L206.488 22.3909V28.1909H202.213V22.3909L196.138 10.6409H200.988L204.388 17.9909L207.763 10.6409H212.563ZM224.91 19.1909C225.927 19.4076 226.744 19.9159 227.36 20.7159C227.977 21.4993 228.285 22.3993 228.285 23.4159C228.285 24.8826 227.769 26.0493 226.735 26.9159C225.719 27.7659 224.294 28.1909 222.46 28.1909H214.285V10.6409H222.185C223.969 10.6409 225.36 11.0493 226.36 11.8659C227.377 12.6826 227.885 13.7909 227.885 15.1909C227.885 16.2243 227.61 17.0826 227.06 17.7659C226.527 18.4493 225.81 18.9243 224.91 19.1909ZM218.56 17.7409H221.36C222.06 17.7409 222.594 17.5909 222.96 17.2909C223.344 16.9743 223.535 16.5159 223.535 15.9159C223.535 15.3159 223.344 14.8576 222.96 14.5409C222.594 14.2243 222.06 14.0659 221.36 14.0659H218.56V17.7409ZM221.71 24.7409C222.427 24.7409 222.977 24.5826 223.36 24.2659C223.76 23.9326 223.96 23.4576 223.96 22.8409C223.96 22.2243 223.752 21.7409 223.335 21.3909C222.935 21.0409 222.377 20.8659 221.66 20.8659H218.56V24.7409H221.71ZM241.69 25.0909H235.14L234.09 28.1909H229.615L235.965 10.6409H240.915L247.265 28.1909H242.74L241.69 25.0909ZM240.59 21.7909L238.415 15.3659L236.265 21.7909H240.59ZM253.472 24.8909H259.072V28.1909H249.197V10.6409H253.472V24.8909ZM272.036 25.0909H265.486L264.436 28.1909H259.961L266.311 10.6409H271.261L277.611 28.1909H273.086L272.036 25.0909ZM270.936 21.7909L268.761 15.3659L266.611 21.7909H270.936ZM294.594 10.6409L288.519 22.3909V28.1909H284.244V22.3909L278.169 10.6409H283.019L286.419 17.9909L289.794 10.6409H294.594Z" fill="url(#paint0_linear_110_32)"/>
<path fill-rule="evenodd" clip-rule="evenodd" d="M301.716 10.1277C303.9 8.85822 306.586 8.88041 308.75 10.1858C310.893 11.5179 312.196 13.8952 312.184 16.4524C312.134 18.9929 310.737 21.381 308.991 23.2271C307.984 24.2974 306.857 25.2439 305.633 26.0471C305.507 26.12 305.369 26.1688 305.225 26.1911C305.088 26.1852 304.953 26.1444 304.835 26.0725C302.966 24.8656 301.327 23.3251 299.996 21.525C298.883 20.0224 298.25 18.207 298.184 16.3254C298.183 13.7632 299.531 11.3972 301.716 10.1277ZM302.979 17.3859C303.346 18.292 304.214 18.883 305.176 18.883C305.807 18.8875 306.413 18.635 306.859 18.1816C307.306 17.7282 307.556 17.1118 307.554 16.4695C307.557 15.4891 306.98 14.6034 306.092 14.2259C305.203 13.8483 304.179 14.0534 303.498 14.7455C302.816 15.4375 302.611 16.4798 302.979 17.3859Z" fill="#FA812F"/>
<ellipse opacity="0.4" cx="305.184" cy="28.191" rx="5.00003" ry="1.00001" fill="#FA812F"/>
<defs>
<linearGradient id="paint0_linear_110_32" x1="0.381714" y1="19.1909" x2="264.608" y2="19.1909" gradientUnits="userSpaceOnUse">
<stop offset="0.175" stop-color="#FA812F"/>
<stop offset="0.5875" stop-color="#FA4032"/>
<stop offset="1" stop-color="#944C1C"/>
</linearGradient>
</defs>
</svg>
