<svg width="18" height="18" viewBox="0 0 18 18" fill="none" xmlns="http://www.w3.org/2000/svg">
<path d="M17.2495 16.7613L13.0214 12.5333C14.1736 11.1241 14.7401 9.32599 14.6037 7.51087C14.4673 5.69574 13.6385 4.00247 12.2887 2.7813C10.9389 1.56012 9.17134 0.904475 7.35166 0.949973C5.53199 0.99547 3.79941 1.73863 2.51231 3.02574C1.2252 4.31284 0.482043 6.04542 0.436545 7.86509C0.391048 9.68476 1.04669 11.4523 2.26787 12.8021C3.48904 14.152 5.18231 14.9808 6.99744 15.1172C8.81256 15.2535 10.6107 14.687 12.0198 13.5348L16.2479 17.7629C16.3815 17.8919 16.5604 17.9633 16.7461 17.9617C16.9318 17.9601 17.1095 17.8856 17.2408 17.7543C17.3722 17.6229 17.4467 17.4453 17.4483 17.2595C17.4499 17.0738 17.3785 16.8949 17.2495 16.7613ZM7.54033 13.7204C6.41957 13.7204 5.32398 13.3881 4.3921 12.7654C3.46022 12.1428 2.73391 11.2577 2.30501 10.2223C1.87612 9.18685 1.7639 8.04747 1.98255 6.94825C2.2012 5.84902 2.7409 4.83932 3.53339 4.04682C4.32589 3.25432 5.3356 2.71463 6.43482 2.49598C7.53405 2.27733 8.67342 2.38955 9.70887 2.81844C10.7443 3.24734 11.6293 3.97365 12.252 4.90553C12.8747 5.83741 13.207 6.933 13.207 8.05376C13.2053 9.55614 12.6077 10.9965 11.5454 12.0588C10.4831 13.1212 9.04271 13.7187 7.54033 13.7204Z" fill="black" fill-opacity="0.5"/>
</svg>
