<svg width="201" height="47" viewBox="0 0 201 47" fill="none" xmlns="http://www.w3.org/2000/svg">
<path d="M55.531 10.2709C55.441 10.8009 55.226 11.3009 54.886 11.7709C54.556 12.2409 54.091 12.6259 53.491 12.9259C52.891 13.2159 52.161 13.3609 51.301 13.3609H49.411L48.661 17.5909H46.951L48.796 7.16594H52.396C53.446 7.16594 54.241 7.40094 54.781 7.87094C55.321 8.33094 55.591 8.93594 55.591 9.68594C55.591 9.81594 55.571 10.0109 55.531 10.2709ZM51.541 12.0259C52.191 12.0259 52.701 11.8709 53.071 11.5609C53.451 11.2509 53.686 10.8209 53.776 10.2709C53.806 10.1209 53.821 9.97594 53.821 9.83594C53.821 9.41594 53.681 9.09094 53.401 8.86094C53.131 8.62094 52.716 8.50094 52.156 8.50094H50.266L49.651 12.0259H51.541ZM58.3919 8.23094C58.1219 8.23094 57.9019 8.14594 57.7319 7.97594C57.5619 7.80594 57.4769 7.59094 57.4769 7.33094C57.4769 6.98094 57.6069 6.68094 57.8669 6.43094C58.1369 6.17094 58.4419 6.04094 58.7819 6.04094C59.0519 6.04094 59.2669 6.12594 59.4269 6.29594C59.5969 6.46594 59.6819 6.68094 59.6819 6.94094C59.6819 7.29094 59.5519 7.59594 59.2919 7.85594C59.0319 8.10594 58.7319 8.23094 58.3919 8.23094ZM59.0369 9.32594L57.5819 17.5909H55.8719L57.3269 9.32594H59.0369ZM63.8169 13.4659L66.9069 17.5909H64.5969L62.1669 14.0359L61.5369 17.5909H59.8269L61.7919 6.49094H63.5019L62.3619 12.9259L65.9919 9.32594H68.3619L63.8169 13.4659ZM70.5326 15.2959C70.5126 15.4359 70.5026 15.5259 70.5026 15.5659C70.5026 15.7759 70.5676 15.9309 70.6976 16.0309C70.8276 16.1209 71.0426 16.1659 71.3426 16.1659H72.3926L72.1376 17.5909H70.7876C70.1276 17.5909 69.6226 17.4609 69.2726 17.2009C68.9226 16.9309 68.7476 16.5059 68.7476 15.9259C68.7476 15.7059 68.7676 15.4959 68.8076 15.2959L69.6176 10.7209H68.6426L68.8826 9.32594H69.8726L70.2326 7.27094H71.9576L71.5976 9.32594H73.5926L73.3526 10.7209H71.3426L70.5326 15.2959ZM76.0987 9.32594L77.3137 15.6259L80.8387 9.32594H82.6087L75.4087 21.4759H73.6387L76.0237 17.4559L74.1937 9.32594H76.0987ZM91.3841 9.32594L89.9291 17.5909H88.2191L88.3841 16.6159C88.0541 16.9559 87.6541 17.2259 87.1841 17.4259C86.7241 17.6159 86.2491 17.7109 85.7591 17.7109C84.8891 17.7109 84.1941 17.4759 83.6741 17.0059C83.1541 16.5359 82.8941 15.8709 82.8941 15.0109C82.8941 14.7809 82.9191 14.5059 82.9691 14.1859L83.8241 9.32594H85.5191L84.7091 13.9309C84.6691 14.2109 84.6491 14.4109 84.6491 14.5309C84.6491 15.0809 84.7991 15.5009 85.0991 15.7909C85.4091 16.0809 85.8341 16.2259 86.3741 16.2259C87.0041 16.2259 87.5391 16.0409 87.9791 15.6709C88.4191 15.2909 88.7091 14.7459 88.8491 14.0359L89.6741 9.32594H91.3841ZM95.0953 10.7809C95.4353 10.2809 95.8353 9.89094 96.2953 9.61094C96.7653 9.33094 97.2853 9.19094 97.8553 9.19094L97.5403 10.9609H97.1053C96.4453 10.9609 95.9153 11.1259 95.5153 11.4559C95.1153 11.7859 94.8353 12.3559 94.6753 13.1659L93.8953 17.5909H92.1853L93.6403 9.32594H95.3503L95.0953 10.7809ZM100.462 8.23094C100.192 8.23094 99.9722 8.14594 99.8022 7.97594C99.6322 7.80594 99.5472 7.59094 99.5472 7.33094C99.5472 6.98094 99.6772 6.68094 99.9372 6.43094C100.207 6.17094 100.512 6.04094 100.852 6.04094C101.122 6.04094 101.337 6.12594 101.497 6.29594C101.667 6.46594 101.752 6.68094 101.752 6.94094C101.752 7.29094 101.622 7.59594 101.362 7.85594C101.102 8.10594 100.802 8.23094 100.462 8.23094ZM101.107 9.32594L99.6522 17.5909H97.9422L99.3972 9.32594H101.107ZM104.132 15.5359L101.597 19.6759H100.487L102.272 15.5359H104.132ZM113.318 7.16594L111.473 17.5909H109.763L111.608 7.16594H113.318ZM116.764 17.7259C116.194 17.7259 115.674 17.6309 115.204 17.4409C114.734 17.2409 114.364 16.9659 114.094 16.6159C113.824 16.2559 113.689 15.8459 113.689 15.3859C113.689 15.3059 113.699 15.1959 113.719 15.0559H115.384C115.344 15.4359 115.459 15.7509 115.729 16.0009C115.999 16.2509 116.379 16.3759 116.869 16.3759C117.349 16.3759 117.744 16.2909 118.054 16.1209C118.364 15.9509 118.519 15.7009 118.519 15.3709C118.519 15.0909 118.389 14.8659 118.129 14.6959C117.879 14.5259 117.474 14.3359 116.914 14.1259C116.384 13.9159 115.954 13.7209 115.624 13.5409C115.294 13.3609 115.009 13.1159 114.769 12.8059C114.529 12.4859 114.409 12.0909 114.409 11.6209C114.409 11.1409 114.544 10.7209 114.814 10.3609C115.094 9.99094 115.479 9.70594 115.969 9.50594C116.469 9.29594 117.039 9.19094 117.679 9.19094C118.259 9.19094 118.774 9.29094 119.224 9.49094C119.684 9.68094 120.039 9.95594 120.289 10.3159C120.549 10.6659 120.679 11.0709 120.679 11.5309C120.679 11.6709 120.674 11.7759 120.664 11.8459H119.044C119.084 11.4559 118.969 11.1409 118.699 10.9009C118.439 10.6609 118.064 10.5409 117.574 10.5409C117.144 10.5409 116.794 10.6309 116.524 10.8109C116.264 10.9909 116.134 11.2359 116.134 11.5459C116.134 11.8559 116.269 12.1059 116.539 12.2959C116.809 12.4759 117.224 12.6759 117.784 12.8959C118.294 13.0959 118.709 13.2859 119.029 13.4659C119.349 13.6459 119.624 13.8859 119.854 14.1859C120.084 14.4859 120.199 14.8609 120.199 15.3109C120.199 15.8009 120.049 16.2309 119.749 16.6009C119.459 16.9609 119.054 17.2409 118.534 17.4409C118.014 17.6309 117.424 17.7259 116.764 17.7259ZM124.251 8.23094C123.981 8.23094 123.761 8.14594 123.591 7.97594C123.421 7.80594 123.336 7.59094 123.336 7.33094C123.336 6.98094 123.466 6.68094 123.726 6.43094C123.996 6.17094 124.301 6.04094 124.641 6.04094C124.911 6.04094 125.126 6.12594 125.286 6.29594C125.456 6.46594 125.541 6.68094 125.541 6.94094C125.541 7.29094 125.411 7.59594 125.151 7.85594C124.891 8.10594 124.591 8.23094 124.251 8.23094ZM124.896 9.32594L123.441 17.5909H121.731L123.186 9.32594H124.896ZM128.641 10.5559C129.001 10.1559 129.456 9.83094 130.006 9.58094C130.556 9.32094 131.141 9.19094 131.761 9.19094C132.401 9.19094 132.961 9.32594 133.441 9.59594C133.931 9.86594 134.311 10.2509 134.581 10.7509C134.851 11.2409 134.986 11.8209 134.986 12.4909C134.986 12.7809 134.956 13.0909 134.896 13.4209C134.746 14.2509 134.441 14.9959 133.981 15.6559C133.531 16.3059 132.976 16.8159 132.316 17.1859C131.666 17.5459 130.981 17.7259 130.261 17.7259C129.621 17.7259 129.076 17.6009 128.626 17.3509C128.176 17.1009 127.836 16.7809 127.606 16.3909L127.396 17.5909H125.686L127.651 6.49094H129.361L128.641 10.5559ZM133.156 13.4209C133.196 13.2309 133.216 13.0259 133.216 12.8059C133.216 12.1359 133.016 11.6159 132.616 11.2459C132.226 10.8659 131.731 10.6759 131.131 10.6759C130.701 10.6759 130.271 10.7859 129.841 11.0059C129.421 11.2259 129.056 11.5459 128.746 11.9659C128.436 12.3859 128.231 12.8809 128.131 13.4509C128.091 13.6409 128.071 13.8459 128.071 14.0659C128.071 14.7359 128.266 15.2659 128.656 15.6559C129.056 16.0459 129.551 16.2409 130.141 16.2409C130.581 16.2409 131.011 16.1309 131.431 15.9109C131.861 15.6809 132.231 15.3509 132.541 14.9209C132.851 14.4909 133.056 13.9909 133.156 13.4209ZM138.237 9.32594L139.452 15.6259L142.977 9.32594H144.747L137.547 21.4759H135.777L138.162 17.4559L136.332 9.32594H138.237ZM144.748 13.4209C144.898 12.5909 145.198 11.8559 145.648 11.2159C146.108 10.5759 146.668 10.0809 147.328 9.73094C147.988 9.37094 148.678 9.19094 149.398 9.19094C150.048 9.19094 150.593 9.32094 151.033 9.58094C151.473 9.83094 151.803 10.1459 152.023 10.5259L152.233 9.32594H153.958L152.503 17.5909H150.778L151.003 16.3609C150.643 16.7509 150.188 17.0759 149.638 17.3359C149.098 17.5959 148.508 17.7259 147.868 17.7259C147.248 17.7259 146.693 17.5859 146.203 17.3059C145.723 17.0259 145.343 16.6309 145.063 16.1209C144.793 15.6009 144.658 15.0059 144.658 14.3359C144.658 14.0359 144.688 13.7309 144.748 13.4209ZM151.513 13.4509C151.553 13.2609 151.573 13.0559 151.573 12.8359C151.573 12.1659 151.373 11.6409 150.973 11.2609C150.583 10.8709 150.093 10.6759 149.503 10.6759C149.063 10.6759 148.633 10.7859 148.213 11.0059C147.793 11.2159 147.428 11.5309 147.118 11.9509C146.808 12.3609 146.603 12.8509 146.503 13.4209C146.463 13.6109 146.443 13.8159 146.443 14.0359C146.443 14.7159 146.638 15.2559 147.028 15.6559C147.428 16.0459 147.923 16.2409 148.513 16.2409C148.953 16.2409 149.383 16.1309 149.803 15.9109C150.223 15.6909 150.588 15.3709 150.898 14.9509C151.208 14.5209 151.413 14.0209 151.513 13.4509ZM49.906 33.5409C50.266 33.1609 50.716 32.8409 51.256 32.5809C51.806 32.3209 52.396 32.1909 53.026 32.1909C53.656 32.1909 54.216 32.3259 54.706 32.5959C55.196 32.8659 55.576 33.2509 55.846 33.7509C56.116 34.2509 56.251 34.8359 56.251 35.5059C56.251 35.7959 56.221 36.1009 56.161 36.4209C56.011 37.2509 55.706 37.9959 55.246 38.6559C54.796 39.3059 54.241 39.8159 53.581 40.1859C52.931 40.5459 52.246 40.7259 51.526 40.7259C50.896 40.7259 50.356 40.6009 49.906 40.3509C49.466 40.0909 49.121 39.7709 48.871 39.3909L47.971 44.5209H46.261L48.406 32.3259H50.116L49.906 33.5409ZM54.421 36.4209C54.461 36.2309 54.481 36.0259 54.481 35.8059C54.481 35.1359 54.281 34.6159 53.881 34.2459C53.491 33.8659 52.996 33.6759 52.396 33.6759C51.966 33.6759 51.536 33.7859 51.106 34.0059C50.686 34.2259 50.321 34.5459 50.011 34.9659C49.701 35.3859 49.496 35.8809 49.396 36.4509C49.356 36.6409 49.336 36.8459 49.336 37.0659C49.336 37.7359 49.531 38.2659 49.921 38.6559C50.321 39.0459 50.816 39.2409 51.406 39.2409C51.846 39.2409 52.276 39.1309 52.696 38.9109C53.126 38.6809 53.496 38.3509 53.806 37.9209C54.116 37.4909 54.321 36.9909 54.421 36.4209ZM57.282 36.4209C57.432 35.5909 57.732 34.8559 58.182 34.2159C58.642 33.5759 59.202 33.0809 59.862 32.7309C60.522 32.3709 61.212 32.1909 61.932 32.1909C62.582 32.1909 63.127 32.3209 63.567 32.5809C64.007 32.8309 64.337 33.1459 64.557 33.5259L64.767 32.3259H66.492L65.037 40.5909H63.312L63.537 39.3609C63.177 39.7509 62.722 40.0759 62.172 40.3359C61.632 40.5959 61.042 40.7259 60.402 40.7259C59.782 40.7259 59.227 40.5859 58.737 40.3059C58.257 40.0259 57.877 39.6309 57.597 39.1209C57.327 38.6009 57.192 38.0059 57.192 37.3359C57.192 37.0359 57.222 36.7309 57.282 36.4209ZM64.047 36.4509C64.087 36.2609 64.107 36.0559 64.107 35.8359C64.107 35.1659 63.907 34.6409 63.507 34.2609C63.117 33.8709 62.627 33.6759 62.037 33.6759C61.597 33.6759 61.167 33.7859 60.747 34.0059C60.327 34.2159 59.962 34.5309 59.652 34.9509C59.342 35.3609 59.137 35.8509 59.037 36.4209C58.997 36.6109 58.977 36.8159 58.977 37.0359C58.977 37.7159 59.172 38.2559 59.562 38.6559C59.962 39.0459 60.457 39.2409 61.047 39.2409C61.487 39.2409 61.917 39.1309 62.337 38.9109C62.757 38.6909 63.122 38.3709 63.432 37.9509C63.742 37.5209 63.947 37.0209 64.047 36.4509ZM70.193 33.7809C70.533 33.2809 70.933 32.8909 71.393 32.6109C71.863 32.3309 72.383 32.1909 72.953 32.1909L72.638 33.9609H72.203C71.543 33.9609 71.013 34.1259 70.613 34.4559C70.213 34.7859 69.933 35.3559 69.773 36.1659L68.993 40.5909H67.283L68.738 32.3259H70.448L70.193 33.7809ZM73.2048 36.4209C73.3548 35.5909 73.6548 34.8559 74.1048 34.2159C74.5648 33.5759 75.1248 33.0809 75.7848 32.7309C76.4448 32.3709 77.1348 32.1909 77.8548 32.1909C78.5048 32.1909 79.0498 32.3209 79.4898 32.5809C79.9298 32.8309 80.2598 33.1459 80.4798 33.5259L80.6898 32.3259H82.4148L80.9598 40.5909H79.2348L79.4598 39.3609C79.0998 39.7509 78.6448 40.0759 78.0948 40.3359C77.5548 40.5959 76.9648 40.7259 76.3248 40.7259C75.7048 40.7259 75.1498 40.5859 74.6598 40.3059C74.1798 40.0259 73.7998 39.6309 73.5198 39.1209C73.2498 38.6009 73.1148 38.0059 73.1148 37.3359C73.1148 37.0359 73.1448 36.7309 73.2048 36.4209ZM79.9698 36.4509C80.0098 36.2609 80.0298 36.0559 80.0298 35.8359C80.0298 35.1659 79.8298 34.6409 79.4298 34.2609C79.0398 33.8709 78.5498 33.6759 77.9598 33.6759C77.5198 33.6759 77.0898 33.7859 76.6698 34.0059C76.2498 34.2159 75.8848 34.5309 75.5748 34.9509C75.2648 35.3609 75.0598 35.8509 74.9598 36.4209C74.9198 36.6109 74.8998 36.8159 74.8998 37.0359C74.8998 37.7159 75.0948 38.2559 75.4848 38.6559C75.8848 39.0459 76.3798 39.2409 76.9698 39.2409C77.4098 39.2409 77.8398 39.1309 78.2598 38.9109C78.6798 38.6909 79.0448 38.3709 79.3548 37.9509C79.6648 37.5209 79.8698 37.0209 79.9698 36.4509ZM94.3629 38.4609H89.9979L88.8729 40.5909H87.0879L92.6679 30.1509H94.6479L96.5379 40.5909H94.7379L94.3629 38.4609ZM94.1379 37.1259L93.2829 32.2209L90.7029 37.1259H94.1379ZM102.152 36.4659L105.242 40.5909H102.932L100.502 37.0359L99.8719 40.5909H98.1619L100.127 29.4909H101.837L100.697 35.9259L104.327 32.3259H106.697L102.152 36.4659ZM109.513 40.7259C108.943 40.7259 108.423 40.6309 107.953 40.4409C107.483 40.2409 107.113 39.9659 106.843 39.6159C106.573 39.2559 106.438 38.8459 106.438 38.3859C106.438 38.3059 106.448 38.1959 106.468 38.0559H108.133C108.093 38.4359 108.208 38.7509 108.478 39.0009C108.748 39.2509 109.128 39.3759 109.618 39.3759C110.098 39.3759 110.493 39.2909 110.803 39.1209C111.113 38.9509 111.268 38.7009 111.268 38.3709C111.268 38.0909 111.138 37.8659 110.878 37.6959C110.628 37.5259 110.223 37.3359 109.663 37.1259C109.133 36.9159 108.703 36.7209 108.373 36.5409C108.043 36.3609 107.758 36.1159 107.518 35.8059C107.278 35.4859 107.158 35.0909 107.158 34.6209C107.158 34.1409 107.293 33.7209 107.563 33.3609C107.843 32.9909 108.228 32.7059 108.718 32.5059C109.218 32.2959 109.788 32.1909 110.428 32.1909C111.008 32.1909 111.523 32.2909 111.973 32.4909C112.433 32.6809 112.788 32.9559 113.038 33.3159C113.298 33.6659 113.428 34.0709 113.428 34.5309C113.428 34.6709 113.423 34.7759 113.413 34.8459H111.793C111.833 34.4559 111.718 34.1409 111.448 33.9009C111.188 33.6609 110.813 33.5409 110.323 33.5409C109.893 33.5409 109.543 33.6309 109.273 33.8109C109.013 33.9909 108.883 34.2359 108.883 34.5459C108.883 34.8559 109.018 35.1059 109.288 35.2959C109.558 35.4759 109.973 35.6759 110.533 35.8959C111.043 36.0959 111.458 36.2859 111.778 36.4659C112.098 36.6459 112.373 36.8859 112.603 37.1859C112.833 37.4859 112.948 37.8609 112.948 38.3109C112.948 38.8009 112.798 39.2309 112.498 39.6009C112.208 39.9609 111.803 40.2409 111.283 40.4409C110.763 40.6309 110.173 40.7259 109.513 40.7259ZM116.865 32.3259L118.08 38.6259L121.605 32.3259H123.375L116.175 44.4759H114.405L116.79 40.4559L114.96 32.3259H116.865ZM126.826 40.7259C126.126 40.7259 125.511 40.5809 124.981 40.2909C124.451 40.0009 124.036 39.5909 123.736 39.0609C123.446 38.5309 123.301 37.9259 123.301 37.2459C123.301 36.3159 123.516 35.4659 123.946 34.6959C124.386 33.9259 124.986 33.3159 125.746 32.8659C126.516 32.4159 127.371 32.1909 128.311 32.1909C129.011 32.1909 129.631 32.3409 130.171 32.6409C130.711 32.9309 131.131 33.3409 131.431 33.8709C131.741 34.3909 131.896 34.9959 131.896 35.6859C131.896 36.6159 131.671 37.4659 131.221 38.2359C130.771 39.0059 130.161 39.6159 129.391 40.0659C128.621 40.5059 127.766 40.7259 126.826 40.7259ZM127.036 39.2859C127.606 39.2859 128.126 39.1259 128.596 38.8059C129.076 38.4759 129.451 38.0459 129.721 37.5159C129.991 36.9759 130.126 36.4009 130.126 35.7909C130.126 35.1009 129.931 34.5709 129.541 34.2009C129.151 33.8209 128.661 33.6309 128.071 33.6309C127.491 33.6309 126.971 33.7959 126.511 34.1259C126.061 34.4459 125.706 34.8809 125.446 35.4309C125.196 35.9709 125.071 36.5509 125.071 37.1709C125.071 37.8409 125.251 38.3609 125.611 38.7309C125.981 39.1009 126.456 39.2859 127.036 39.2859ZM138.431 32.1909C139.301 32.1909 139.991 32.4259 140.501 32.8959C141.021 33.3559 141.281 34.0209 141.281 34.8909C141.281 35.1109 141.256 35.3859 141.206 35.7159L140.336 40.5909H138.641L139.466 35.9709C139.506 35.6909 139.526 35.4909 139.526 35.3709C139.526 34.8209 139.371 34.4009 139.061 34.1109C138.761 33.8209 138.341 33.6759 137.801 33.6759C137.151 33.6759 136.601 33.8759 136.151 34.2759C135.711 34.6659 135.431 35.2309 135.311 35.9709V35.9259L134.486 40.5909H132.776L134.231 32.3259H135.941L135.776 33.2859C136.116 32.9459 136.516 32.6809 136.976 32.4909C137.446 32.2909 137.931 32.1909 138.431 32.1909ZM152.264 30.1659C153.234 30.1659 154.074 30.3309 154.784 30.6609C155.494 30.9909 156.034 31.4659 156.404 32.0859C156.784 32.7059 156.974 33.4409 156.974 34.2909C156.974 34.6809 156.939 35.0559 156.869 35.4159C156.679 36.4759 156.289 37.3959 155.699 38.1759C155.109 38.9559 154.359 39.5559 153.449 39.9759C152.539 40.3859 151.529 40.5909 150.419 40.5909H147.014L148.859 30.1659H152.264ZM150.659 39.2859C151.869 39.2859 152.859 38.9409 153.629 38.2509C154.409 37.5609 154.904 36.6159 155.114 35.4159C155.174 35.0659 155.204 34.7409 155.204 34.4409C155.204 33.5209 154.934 32.8109 154.394 32.3109C153.854 31.8009 153.064 31.5459 152.024 31.5459H150.329L148.964 39.2859H150.659ZM157.814 36.4209C157.964 35.5909 158.264 34.8559 158.714 34.2159C159.174 33.5759 159.734 33.0809 160.394 32.7309C161.054 32.3709 161.744 32.1909 162.464 32.1909C163.114 32.1909 163.659 32.3209 164.099 32.5809C164.539 32.8309 164.869 33.1459 165.089 33.5259L165.299 32.3259H167.024L165.569 40.5909H163.844L164.069 39.3609C163.709 39.7509 163.254 40.0759 162.704 40.3359C162.164 40.5959 161.574 40.7259 160.934 40.7259C160.314 40.7259 159.759 40.5859 159.269 40.3059C158.789 40.0259 158.409 39.6309 158.129 39.1209C157.859 38.6009 157.724 38.0059 157.724 37.3359C157.724 37.0359 157.754 36.7309 157.814 36.4209ZM164.579 36.4509C164.619 36.2609 164.639 36.0559 164.639 35.8359C164.639 35.1659 164.439 34.6409 164.039 34.2609C163.649 33.8709 163.159 33.6759 162.569 33.6759C162.129 33.6759 161.699 33.7859 161.279 34.0059C160.859 34.2159 160.494 34.5309 160.184 34.9509C159.874 35.3609 159.669 35.8509 159.569 36.4209C159.529 36.6109 159.509 36.8159 159.509 37.0359C159.509 37.7159 159.704 38.2559 160.094 38.6559C160.494 39.0459 160.989 39.2409 161.579 39.2409C162.019 39.2409 162.449 39.1309 162.869 38.9109C163.289 38.6909 163.654 38.3709 163.964 37.9509C164.274 37.5209 164.479 37.0209 164.579 36.4509ZM170.2 32.3259L171.415 38.6259L174.94 32.3259H176.71L169.51 44.4759H167.74L170.125 40.4559L168.295 32.3259H170.2ZM180.161 40.7259C179.461 40.7259 178.846 40.5809 178.316 40.2909C177.786 40.0009 177.371 39.5909 177.071 39.0609C176.781 38.5309 176.636 37.9259 176.636 37.2459C176.636 36.3159 176.851 35.4659 177.281 34.6959C177.721 33.9259 178.321 33.3159 179.081 32.8659C179.851 32.4159 180.706 32.1909 181.646 32.1909C182.346 32.1909 182.966 32.3409 183.506 32.6409C184.046 32.9309 184.466 33.3409 184.766 33.8709C185.076 34.3909 185.231 34.9959 185.231 35.6859C185.231 36.6159 185.006 37.4659 184.556 38.2359C184.106 39.0059 183.496 39.6159 182.726 40.0659C181.956 40.5059 181.101 40.7259 180.161 40.7259ZM180.371 39.2859C180.941 39.2859 181.461 39.1259 181.931 38.8059C182.411 38.4759 182.786 38.0459 183.056 37.5159C183.326 36.9759 183.461 36.4009 183.461 35.7909C183.461 35.1009 183.266 34.5709 182.876 34.2009C182.486 33.8209 181.996 33.6309 181.406 33.6309C180.826 33.6309 180.306 33.7959 179.846 34.1259C179.396 34.4459 179.041 34.8809 178.781 35.4309C178.531 35.9709 178.406 36.5509 178.406 37.1709C178.406 37.8409 178.586 38.3609 178.946 38.7309C179.316 39.1009 179.791 39.2859 180.371 39.2859ZM191.766 32.1909C192.636 32.1909 193.326 32.4259 193.836 32.8959C194.356 33.3559 194.616 34.0209 194.616 34.8909C194.616 35.1109 194.591 35.3859 194.541 35.7159L193.671 40.5909H191.976L192.801 35.9709C192.841 35.6909 192.861 35.4909 192.861 35.3709C192.861 34.8209 192.706 34.4009 192.396 34.1109C192.096 33.8209 191.676 33.6759 191.136 33.6759C190.486 33.6759 189.936 33.8759 189.486 34.2759C189.046 34.6659 188.766 35.2309 188.646 35.9709V35.9259L187.821 40.5909H186.111L187.566 32.3259H189.276L189.111 33.2859C189.451 32.9459 189.851 32.6809 190.311 32.4909C190.781 32.2909 191.266 32.1909 191.766 32.1909ZM199.842 30.1659L198.357 37.4409H196.932L198.027 30.1659H199.842ZM197.127 40.6959C196.857 40.6959 196.637 40.6109 196.467 40.4409C196.297 40.2709 196.212 40.0559 196.212 39.7959C196.212 39.4459 196.342 39.1459 196.602 38.8959C196.872 38.6359 197.177 38.5059 197.517 38.5059C197.787 38.5059 198.002 38.5909 198.162 38.7609C198.332 38.9309 198.417 39.1459 198.417 39.4059C198.417 39.7559 198.287 40.0609 198.027 40.3209C197.767 40.5709 197.467 40.6959 197.127 40.6959Z" fill="black" fill-opacity="0.5"/>
<g clip-path="url(#clip0_110_30)">
<path d="M27.9078 20.8947L27.4872 20.6098L27.2678 17.0402C27.238 16.5825 27.1043 16.1375 26.8771 15.7391C26.6498 15.3406 26.3348 14.9991 25.956 14.7405L22.7572 12.573C22.3765 12.317 21.9426 12.1511 21.4883 12.0877C21.034 12.0243 20.5712 12.0651 20.135 12.2071L16.7384 13.3265L16.3178 13.0415C15.2196 12.2992 13.8717 12.0229 12.5699 12.2731C11.2682 12.5232 10.1188 13.2795 9.37386 14.376L3.7644 22.6546C3.02213 23.7529 2.74578 25.1007 2.99596 26.4025C3.24614 27.7043 4.00244 28.8537 5.09894 29.5986L16.6889 37.4518C17.7872 38.1941 19.135 38.4704 20.4368 38.2202C21.7386 37.9701 22.888 37.2138 23.6329 36.1173L29.2423 27.8387C29.9846 26.7404 30.261 25.3926 30.0108 24.0908C29.7606 22.789 29.0043 21.6396 27.9078 20.8947ZM20.7609 14.1073C20.9063 14.0597 21.0606 14.0459 21.2121 14.0669C21.3636 14.088 21.5084 14.1433 21.6353 14.2287L24.8341 16.3962C24.9604 16.4825 25.0653 16.5964 25.141 16.7293C25.2167 16.8623 25.2612 17.0107 25.271 17.1633L25.3961 19.1928L18.8296 14.7434L20.7609 14.1073ZM21.9772 34.9954C21.5309 35.654 20.8412 36.1084 20.0598 36.2586C19.2785 36.4088 18.4695 36.2424 17.8108 35.7961L6.22083 27.9429C5.56215 27.4965 5.10775 26.8068 4.95758 26.0255C4.80742 25.2441 4.97379 24.4351 5.42011 23.7765L11.0296 15.4979C11.4759 14.8392 12.1656 14.3848 12.9469 14.2347C13.7283 14.0845 14.5373 14.2509 15.196 14.6972L26.7859 22.5504C27.4446 22.9968 27.899 23.6865 28.0491 24.4678C28.1993 25.2492 28.0329 26.0582 27.5866 26.7168L21.9772 34.9954Z" fill="black" fill-opacity="0.5"/>
<path d="M19.869 20.2794C18.8866 19.6138 17.7288 19.2544 16.5422 19.2467C15.3555 19.239 14.1932 19.5833 13.2023 20.2362C12.2113 20.8891 11.4362 21.8212 10.975 22.9146C10.5138 24.008 10.3872 25.2136 10.6111 26.3789C10.8351 27.5443 11.3996 28.6171 12.2333 29.4616C13.0669 30.3061 14.1323 30.8845 15.2947 31.1235C16.457 31.3626 17.6642 31.2516 18.7634 30.8046C19.8627 30.3576 20.8048 29.5946 21.4704 28.6122C22.3615 27.2944 22.6933 25.6768 22.393 24.1146C22.0928 22.5524 21.185 21.1731 19.869 20.2794ZM14.2595 28.5579C13.6046 28.1142 13.096 27.4861 12.7979 26.7533C12.4999 26.0204 12.4259 25.2157 12.5853 24.4408C12.7447 23.6659 13.1302 22.9556 13.6933 22.3998C14.2563 21.8441 14.9715 21.4677 15.7484 21.3184C16.5253 21.1691 17.329 21.2535 18.0579 21.561C18.7869 21.8685 19.4083 22.3852 19.8435 23.0458C20.2788 23.7065 20.5083 24.4813 20.5032 25.2725C20.4981 26.0636 20.2585 26.8354 19.8147 27.4903C19.2196 28.3686 18.3 28.9744 17.2582 29.1747C16.2164 29.3749 15.1378 29.153 14.2595 28.5579Z" fill="black" fill-opacity="0.5"/>
</g>
<defs>
<clipPath id="clip0_110_30">
<rect width="24" height="24" fill="white" transform="translate(14.4224 6.92536) rotate(34.1212)"/>
</clipPath>
</defs>
</svg>
